<?xml version="1.0" encoding="UTF-8"?>
<svg id="_레이어_2" data-name="레이어 2" xmlns="http://www.w3.org/2000/svg" viewBox="0 0 267.09 49.09">
  <defs>
    <style>
      .cls-1 {
        fill: #dcdddd;
      }

      .cls-2 {
        fill: #fabe00;
      }

      .cls-3 {
        fill: #4d4d4d;
      }

      .cls-4 {
        fill: #dae000;
      }

      .cls-5 {
        fill: #ffd900;
      }

      .cls-6 {
        fill: #86b81b;
      }

      .cls-7 {
        fill: #231815;
      }

      .cls-8 {
        fill: #f39800;
      }

      .cls-9 {
        fill: #727171;
      }
    </style>
  </defs>
  <g id="Layer_1" data-name="Layer 1">
    <g>
      <g>
        <path class="cls-7" d="M31.71,48.11l.03-.05s-.02,.03-.03,.04h0Z"/>
        <path class="cls-2" d="M48.32,15.25s-3.24-.05-8.07,1.25c-.79,7.47-2.29,21.86-2.29,22.08,0,0,0,.63-.23,.92l-5.87,8.61c.61-.69,2.84-2.42,10.47-3.94,0,0,.23-.02,.32-.31l5.9-28.41s.04-.21-.23-.21"/>
        <path class="cls-5" d="M40.75,12.03c.06-.38-.27-.23-.27-.23-4.79,1.95-8.85,8.05-8.85,8.05l.04-.02c3.14-1.61,6.07-2.65,8.58-3.33,.27-2.62,.43-4.02,.5-4.47"/>
        <path class="cls-8" d="M31.67,19.83s-.03,.01-.04,.02l-.33,28.93s0,.09,.07,.08c.1-.02,.17-.3,.48-.74l5.87-8.62c.22-.28,.23-.92,.23-.92,0-.23,1.51-14.62,2.3-22.08-2.51,.68-5.44,1.72-8.58,3.33"/>
        <path class="cls-1" d="M8.34,.02s-.62-.11-.52,.24l1.56,6.47c9.6,1.62,19.47,5.24,19.47,5.24C28.86,11.96,20.52,1.9,8.34,.02"/>
        <path class="cls-4" d="M16.52,36.36L9.38,6.72c-2.99-.5-5.95-.82-8.58-.76C.8,5.96-.06,5.96,0,6.59L9.95,42.82s.11,.57,.91,.69c0,0,14.99,1.26,17.87,4.94-3.06-5.12-12.22-12.08-12.22-12.08"/>
        <path class="cls-6" d="M28.86,11.96s-9.87-3.62-19.48-5.24l7.13,29.64s9.16,6.95,12.22,12.08c.07,.09,.13,.19,.19,.28,.07,.12,.12,.24,.18,.36,.02,.04,.05,0,.05-.04,0-.05-.29-37.07-.29-37.07"/>
      </g>
      <g>
        <polygon class="cls-9" points="224.9 19.57 213.51 19.57 213.51 16.9 225.78 16.9 224.9 19.57"/>
        <polygon class="cls-9" points="265.42 37.89 251.32 37.89 251.32 35.49 266.21 35.49 265.42 37.89"/>
        <rect class="cls-9" x="251.32" y="31.54" width="2.39" height="6.35"/>
        <rect class="cls-9" x="226.46" y="16.9" width="2.63" height="12.41"/>
        <polygon class="cls-9" points="173.04 29.31 176.38 29.31 183.31 16.9 179.96 16.9 173.04 29.31"/>
        <polygon class="cls-9" points="186.47 29.31 183.15 29.31 178.38 20.05 181.45 19.52 186.47 29.31"/>
        <rect class="cls-9" x="187.53" y="16.89" width="2.63" height="12.41"/>
        <polygon class="cls-9" points="193.36 19.54 188.43 19.54 188.43 16.89 194.26 16.89 193.36 19.54"/>
        <polygon class="cls-9" points="190.67 37.89 176.57 37.89 176.57 35.49 191.46 35.49 190.67 37.89"/>
        <rect class="cls-9" x="176.57" y="31.54" width="2.39" height="6.35"/>
        <polygon class="cls-9" points="230.01 37.89 215.91 37.89 215.91 35.49 230.8 35.49 230.01 37.89"/>
        <rect class="cls-9" x="215.91" y="31.54" width="2.39" height="6.35"/>
        <polygon class="cls-9" points="173.22 20.37 167.76 20.37 167.76 17.75 174.21 17.75 173.22 20.37"/>
        <rect class="cls-9" x="167.53" y="17.75" width="2.62" height="20.04"/>
        <rect class="cls-9" x="135.94" y="16.9" width="2.64" height="8.9"/>
        <rect class="cls-9" x="148.79" y="16.9" width="2.64" height="8.9"/>
        <rect class="cls-9" x="135.94" y="16.9" width="15.5" height="2.64"/>
        <rect class="cls-9" x="135.94" y="23.19" width="15.5" height="2.64"/>
        <polygon class="cls-9" points="151.44 30.54 135.94 30.54 135.94 27.87 152.31 27.87 151.44 30.54"/>
        <rect class="cls-9" x="142.34" y="27.98" width="2.65" height="7.01"/>
        <polygon class="cls-9" points="150.04 42.27 135.94 42.27 135.94 39.6 150.83 39.6 150.04 42.27"/>
        <rect class="cls-9" x="135.94" y="31.5" width="2.39" height="10.77"/>
        <polygon class="cls-9" points="125.83 19.55 114.87 19.55 114.87 16.9 126.73 16.9 125.83 19.55"/>
        <polygon class="cls-9" points="125.83 29.3 114.87 29.3 114.87 26.65 126.73 26.65 125.83 29.3"/>
        <rect class="cls-9" x="116.51" y="18.33" width="2.33" height="8.58"/>
        <rect class="cls-9" x="121.81" y="18.33" width="2.33" height="8.58"/>
        <rect class="cls-9" x="128.03" y="16.89" width="2.63" height="12.41"/>
        <polygon class="cls-9" points="133.82 19.54 128.89 19.54 128.89 16.89 134.71 16.89 133.82 19.54"/>
        <polygon class="cls-9" points="130.61 37.85 116.51 37.85 116.51 35.45 131.4 35.45 130.61 37.85"/>
        <rect class="cls-9" x="116.51" y="31.5" width="2.39" height="6.35"/>
        <polygon class="cls-9" points="112.04 30.05 95.91 30.05 95.91 27.69 112.94 27.69 112.04 30.05"/>
        <rect class="cls-9" x="102.62" y="27.78" width="2.76" height="5.64"/>
        <rect class="cls-9" x="95.88" y="32.24" width="16.2" height="2.02"/>
        <polygon class="cls-9" points="112.09 42.33 95.88 42.33 95.88 40.26 112.97 40.26 112.09 42.33"/>
        <rect class="cls-9" x="95.88" y="36.4" width="16.2" height="1.76"/>
        <rect class="cls-9" x="109.31" y="32.96" width="2.77" height="4.97"/>
        <rect class="cls-9" x="95.88" y="36.89" width="2.77" height="4.97"/>
        <polygon class="cls-9" points="112.12 20.41 95.86 20.41 95.86 17.74 112.97 17.74 112.12 20.41"/>
        <polygon class="cls-9" points="105.16 18.79 102.27 18.79 102.27 16.13 106.56 16.13 105.16 18.79"/>
        <polygon class="cls-9" points="95.75 25.89 99.79 25.89 104.16 22.39 104.16 18.63 95.75 25.89"/>
        <polygon class="cls-9" points="112.48 25.89 108.44 25.89 104.06 22.39 104.06 18.63 112.48 25.89"/>
        <polygon class="cls-9" points="92.41 35.49 77.88 35.49 77.88 32.83 93.22 32.83 92.41 35.49"/>
        <rect class="cls-9" x="90.61" y="32.83" width="2.61" height="9.53"/>
        <rect class="cls-9" x="77.75" y="16.9" width="15.49" height="2.67"/>
        <rect class="cls-9" x="90.57" y="18.05" width="2.67" height="7.84"/>
        <polygon class="cls-9" points="70.19 37.86 56.09 37.86 56.09 35.47 70.98 35.47 70.19 37.86"/>
        <polygon class="cls-9" points="93.23 30.53 77.75 30.53 77.75 27.87 94.1 27.87 93.23 30.53"/>
        <rect class="cls-9" x="56.09" y="31.51" width="2.39" height="6.35"/>
        <polygon class="cls-9" points="75.09 20.62 69.63 20.62 69.63 18 76.09 18 75.09 20.62"/>
        <rect class="cls-9" x="69.4" y="18" width="2.62" height="12.42"/>
        <polygon class="cls-9" points="232.15 30.96 247.63 30.96 248.51 28.53 232.15 28.53 232.15 30.96"/>
        <path class="cls-9" d="M240.01,31.79c-1.56,0-2.88,.48-3.96,1.43-1.08,.95-1.62,2.18-1.62,3.67s.53,2.82,1.59,3.89c1.06,1.07,2.34,1.6,3.85,1.6s2.88-.51,3.97-1.53c1.08-1.02,1.63-2.29,1.63-3.82s-.53-2.78-1.58-3.76c-1.05-.98-2.35-1.47-3.89-1.47Zm1.98,7.13c-.55,.52-1.22,.78-2.03,.78s-1.52-.25-2.09-.76c-.57-.5-.85-1.15-.85-1.94s.28-1.48,.83-2.01c.56-.53,1.23-.8,2.02-.8s1.52,.26,2.08,.79c.57,.52,.85,1.18,.85,1.97s-.28,1.45-.82,1.97Z"/>
        <path class="cls-9" d="M61.97,19.38c-3.01,0-5.45,2.47-5.45,5.52s2.44,5.52,5.45,5.52,5.45-2.47,5.45-5.52-2.44-5.52-5.45-5.52Zm.01,8.41c-1.56,0-2.83-1.3-2.83-2.9s1.27-2.9,2.83-2.9,2.83,1.3,2.83,2.9-1.27,2.9-2.83,2.9Z"/>
        <polygon class="cls-9" points="67.47 20.7 56.09 20.7 56.09 18.03 68.34 18.03 67.47 20.7"/>
        <polygon class="cls-9" points="62.8 19.1 60.44 19.1 60.44 16.44 64.24 16.44 62.8 19.1"/>
        <rect class="cls-9" x="84.16" y="27.98" width="2.66" height="6.35"/>
        <polygon class="cls-9" points="165.24 20.42 154.34 20.42 154.34 17.76 166.08 17.76 165.24 20.42"/>
        <polygon class="cls-9" points="160.6 18.56 158.41 18.56 158.41 16.15 161.93 16.15 160.6 18.56"/>
        <polygon class="cls-9" points="165.21 33.39 154.31 33.39 154.31 30.73 166.09 30.73 165.21 33.39"/>
        <rect class="cls-9" x="158.54" y="26.93" width="2.6" height="6.35"/>
        <path class="cls-9" d="M159.79,19.15c-2.68,0-4.84,2.17-4.84,4.84s2.17,4.84,4.84,4.84,4.84-2.17,4.84-4.84-2.17-4.84-4.84-4.84Zm-.01,7.06c-1.24,0-2.25-1.01-2.25-2.25s1.01-2.25,2.25-2.25,2.25,1.01,2.25,2.25-1,2.25-2.25,2.25Z"/>
        <rect class="cls-9" x="195.13" y="31.52" width="2.63" height="10.74"/>
        <rect class="cls-9" x="207.95" y="16.9" width="2.63" height="12.41"/>
        <rect class="cls-9" x="204.27" y="20.15" width="4.28" height="2.67"/>
        <path class="cls-9" d="M199.5,16.63c-3.21,0-5.81,2.63-5.81,5.88s2.6,5.88,5.81,5.88,5.81-2.63,5.81-5.88-2.6-5.88-5.81-5.88Zm0,9.07c-1.75,0-3.16-1.43-3.16-3.2s1.41-3.2,3.16-3.2,3.16,1.43,3.16,3.2-1.41,3.2-3.16,3.2Z"/>
        <rect class="cls-9" x="207.95" y="31.52" width="2.63" height="10.74"/>
        <rect class="cls-9" x="195.69" y="39.6" width="13.6" height="2.66"/>
        <rect class="cls-9" x="195.69" y="34.06" width="13.6" height="2.38"/>
        <polygon class="cls-9" points="261.68 29.47 251.23 29.47 251.23 27.12 262.65 27.12 261.68 29.47"/>
        <rect class="cls-9" x="255.18" y="27.22" width="2.64" height="6.44"/>
        <rect class="cls-9" x="264.46" y="17.5" width="2.63" height="16.33"/>
        <rect class="cls-9" x="260.94" y="29.08" width="4.16" height="2.02"/>
        <path class="cls-9" d="M239.89,17.53c-2.78,0-5.03,2.28-5.03,5.09s2.25,5.09,5.03,5.09,5.03-2.28,5.03-5.09-2.25-5.09-5.03-5.09Zm.02,7.47c-1.32,0-2.39-1.08-2.39-2.42s1.07-2.42,2.39-2.42,2.39,1.08,2.39,2.42-1.07,2.42-2.39,2.42Z"/>
        <polygon class="cls-9" points="247.63 20.15 232.15 20.15 232.15 17.75 248.54 17.75 247.63 20.15"/>
        <polygon class="cls-9" points="240.98 18.71 238.28 18.56 238.28 16.15 242.37 16.15 240.98 18.71"/>
        <path class="cls-9" d="M256.36,16.61c-3,0-5.44,2.48-5.44,5.54s2.43,5.54,5.44,5.54,5.44-2.48,5.44-5.54-2.43-5.54-5.44-5.54Zm-.08,8.69c-1.63,0-2.96-1.33-2.96-2.98s1.32-2.98,2.96-2.98,2.96,1.33,2.96,2.98-1.32,2.98-2.96,2.98Z"/>
        <polygon class="cls-9" points="173.04 29.31 176.38 29.31 183.31 16.9 179.96 16.9 173.04 29.31"/>
        <polygon class="cls-3" points="219.63 16.9 218.56 16.9 212.74 29.36 215.81 29.36 219.1 22.83 222.38 29.36 225.45 29.36 219.63 16.9"/>
      </g>
    </g>
  </g>
</svg>