<svg xmlns="http://www.w3.org/2000/svg" viewBox="0 0 47.27 8.94"><defs><style>.cls-1{fill:#1b9538;}.cls-2{fill:#efb053;}.cls-3{opacity:0.88;}.cls-4{fill:#494949;}</style></defs><g id="레이어_2" data-name="레이어 2"><g id="Layer_1" data-name="Layer 1"><path class="cls-1" d="M7.13,5.85A3.17,3.17,0,0,1,4.28,7.69,3.22,3.22,0,0,1,1.11,4.42,3.22,3.22,0,0,1,4.28,1.15,3.17,3.17,0,0,1,7.13,3h1.2a4.3,4.3,0,0,0-4-3A4.35,4.35,0,0,0,0,4.42,4.35,4.35,0,0,0,4.28,8.84a4.3,4.3,0,0,0,4.05-3Z"/><polygon class="cls-2" points="5.38 3.79 11.73 3.79 11.73 4.93 10.06 6.73 12.11 8.94 10.57 8.94 8.54 6.75 10.22 4.93 5.38 4.93 5.38 3.79"/><polygon class="cls-2" points="7.27 4.93 8.55 4.93 8.55 4.93 8.55 3.79 3.15 3.79 3.15 4.93 5.34 4.93 7.27 4.93"/><g class="cls-3"><path class="cls-4" d="M14.66,5.48h1.56A1.31,1.31,0,0,0,17,5.3V2h.7V6.34H17v-.5a1.49,1.49,0,0,1-.93.21H14V3.73h1.55V2.59H14V2H16.2V4.3H14.66Z"/><path class="cls-4" d="M18.82,6.05V2h2.29v4Zm1.61-3.46h-.92V5.48h.92Zm2.06,1.1h.7v.57h-.7V6.34h-.7V2h.7Z"/><path class="cls-4" d="M24.87,2.56H23.68V2h1.85v.43a3.19,3.19,0,0,1,0,.45h.42V2h.66V4.48h-.66v-1h-.57a2.06,2.06,0,0,1-1.78,1.16V4.05a1.54,1.54,0,0,0,1-.57,1.76,1.76,0,0,1-.42,0h-.51V3h.54a2.17,2.17,0,0,0,.61-.06A2,2,0,0,0,24.87,2.56Zm.81,3.13a3.19,3.19,0,0,1-1.93.7V5.83c1-.12,1.58-.51,1.58-1.08V4.61H26v.14c0,.57.59,1,1.58,1.08v.56A3.19,3.19,0,0,1,25.68,5.69ZM26.89,2h.66V4.63h-.66Z"/><path class="cls-4" d="M28.47,5.58h4.14v.57H28.47ZM31.65,4h.81v.57H28.62V4h.67V2.6H28.7V2h3.68V2.6h-.59v.7A1.78,1.78,0,0,1,31.65,4ZM30,4h1a2,2,0,0,0,.1-.68V2.6H30Z"/><path class="cls-4" d="M34.28,4.29h3v.57H35.78v.72H37.5v.57H33.35V5.58h1.74V4.86h-1.5V3.15h3V2.59h-3V2h3.67v1.7h-3Z"/><path class="cls-4" d="M40.26,2v.56h-.64v.26c0,.7.21.91.7,1v.58a1.63,1.63,0,0,1-1-.5,1.75,1.75,0,0,1-1,.55V3.9c.5-.12.7-.37.7-1.08V2.56H38.3V2Zm1.25,3.27H38.6V4.71h3.6V6.42h-.69Zm-.94-1.83H40V2.88h.55V2h.66v2.5h-.66Zm1-1.49h.66V4.5h-.66Z"/><path class="cls-4" d="M43.12,5.58h4.15v.57H43.12Zm.93-3v.59H47v.56H44.05v.61h3v.56H43.35V2H47v.57Z"/></g></g></g></svg>